<svg width="16" height="17" viewBox="0 0 16 17" fill="none" xmlns="http://www.w3.org/2000/svg">
<path d="M0 7.48779C0 6.93551 0.447715 6.48779 1 6.48779H3C3.55228 6.48779 4 6.93551 4 7.48779V9.48779C4 10.0401 3.55228 10.4878 3 10.4878H1C0.447715 10.4878 0 10.0401 0 9.48779V7.48779Z" fill="#8E919C"/>
<path d="M6 1.48779C6 0.935508 6.44772 0.487793 7 0.487793H9C9.55228 0.487793 10 0.935508 10 1.48779V3.48779C10 4.04008 9.55228 4.48779 9 4.48779H7C6.44772 4.48779 6 4.04008 6 3.48779V1.48779Z" fill="#8E919C"/>
<path d="M6 7.48779C6 6.93551 6.44772 6.48779 7 6.48779H9C9.55228 6.48779 10 6.93551 10 7.48779V9.48779C10 10.0401 9.55228 10.4878 9 10.4878H7C6.44772 10.4878 6 10.0401 6 9.48779V7.48779Z" fill="#8E919C"/>
<path d="M12 1.48779C12 0.935508 12.4477 0.487793 13 0.487793H15C15.5523 0.487793 16 0.935508 16 1.48779V3.48779C16 4.04008 15.5523 4.48779 15 4.48779H13C12.4477 4.48779 12 4.04008 12 3.48779V1.48779Z" fill="#8E919C"/>
<path d="M12 7.48779C12 6.93551 12.4477 6.48779 13 6.48779H15C15.5523 6.48779 16 6.93551 16 7.48779V9.48779C16 10.0401 15.5523 10.4878 15 10.4878H13C12.4477 10.4878 12 10.0401 12 9.48779V7.48779Z" fill="#8E919C"/>
<path d="M0 13.4878C0 12.9355 0.447715 12.4878 1 12.4878H3C3.55228 12.4878 4 12.9355 4 13.4878V15.4878C4 16.0401 3.55228 16.4878 3 16.4878H1C0.447715 16.4878 0 16.0401 0 15.4878V13.4878Z" fill="#8E919C"/>
<path d="M6 13.4878C6 12.9355 6.44772 12.4878 7 12.4878H9C9.55228 12.4878 10 12.9355 10 13.4878V15.4878C10 16.0401 9.55228 16.4878 9 16.4878H7C6.44772 16.4878 6 16.0401 6 15.4878V13.4878Z" fill="#8E919C"/>
<path d="M12 13.4878C12 12.9355 12.4477 12.4878 13 12.4878H15C15.5523 12.4878 16 12.9355 16 13.4878V15.4878C16 16.0401 15.5523 16.4878 15 16.4878H13C12.4477 16.4878 12 16.0401 12 15.4878V13.4878Z" fill="#8E919C"/>
</svg>
